<mxfile host="app.diagrams.net" modified="2023-09-08T23:25:06.699Z" agent="Mozilla/5.0 (Windows NT 10.0; Win64; x64) AppleWebKit/537.36 (KHTML, like Gecko) Chrome/116.0.0.0 Safari/537.36 Edg/116.0.1938.69" etag="nWQGTCV2zFL6I9R24NPd" version="21.7.4" type="device">
  <diagram name="Page-1" id="PDvvRp-OfwHDWWfL8AgT">
    <mxGraphModel dx="1901" dy="1025" grid="1" gridSize="14" guides="0" tooltips="1" connect="1" arrows="1" fold="1" page="0" pageScale="1" pageWidth="2742" pageHeight="13300" background="none" math="0" shadow="0">
      <root>
        <mxCell id="0" />
        <mxCell id="1" parent="0" />
        <mxCell id="yz8sDFow9ecl2K3A8M4w-3" style="edgeStyle=orthogonalEdgeStyle;rounded=0;orthogonalLoop=1;jettySize=auto;html=1;" edge="1" parent="1" source="fLW8FLOm7NrX6haBpgMr-1" target="yz8sDFow9ecl2K3A8M4w-2">
          <mxGeometry relative="1" as="geometry" />
        </mxCell>
        <mxCell id="fLW8FLOm7NrX6haBpgMr-1" value="&lt;font style=&quot;font-size: 12px;&quot;&gt;The Freight Crisis&lt;/font&gt;&lt;br&gt;&lt;br&gt;event to choose what debuff of the spirit to remove" style="rounded=0;whiteSpace=wrap;html=1;fillColor=#f5f5f5;gradientColor=#b3b3b3;strokeColor=#666666;fontFamily=Georgia;fontSize=9;verticalAlign=middle;" parent="1" vertex="1">
          <mxGeometry x="728" y="56" width="224" height="112" as="geometry" />
        </mxCell>
        <mxCell id="yz8sDFow9ecl2K3A8M4w-1" value="XOR" style="shape=doubleArrow;whiteSpace=wrap;html=1;fillColor=#ffcccc;strokeColor=#36393d;arrowWidth=0.6171433221726185;arrowSize=0.2247616722470241;rounded=0;" vertex="1" parent="1">
          <mxGeometry x="1316" y="771" width="56" height="24" as="geometry" />
        </mxCell>
        <mxCell id="yz8sDFow9ecl2K3A8M4w-5" style="edgeStyle=orthogonalEdgeStyle;rounded=0;orthogonalLoop=1;jettySize=auto;html=1;" edge="1" parent="1" source="yz8sDFow9ecl2K3A8M4w-2" target="yz8sDFow9ecl2K3A8M4w-4">
          <mxGeometry relative="1" as="geometry" />
        </mxCell>
        <mxCell id="yz8sDFow9ecl2K3A8M4w-12" style="edgeStyle=orthogonalEdgeStyle;rounded=0;orthogonalLoop=1;jettySize=auto;html=1;" edge="1" parent="1" source="yz8sDFow9ecl2K3A8M4w-2" target="yz8sDFow9ecl2K3A8M4w-8">
          <mxGeometry relative="1" as="geometry">
            <Array as="points">
              <mxPoint x="840" y="447.5" />
              <mxPoint x="334" y="447.5" />
            </Array>
          </mxGeometry>
        </mxCell>
        <mxCell id="yz8sDFow9ecl2K3A8M4w-83" style="edgeStyle=orthogonalEdgeStyle;rounded=0;orthogonalLoop=1;jettySize=auto;html=1;" edge="1" parent="1" source="yz8sDFow9ecl2K3A8M4w-2" target="yz8sDFow9ecl2K3A8M4w-10">
          <mxGeometry relative="1" as="geometry">
            <Array as="points">
              <mxPoint x="840" y="447.5" />
              <mxPoint x="1344" y="447.5" />
            </Array>
          </mxGeometry>
        </mxCell>
        <mxCell id="yz8sDFow9ecl2K3A8M4w-2" value="&lt;font style=&quot;font-size: 12px;&quot;&gt;The Expedition&lt;/font&gt;&lt;br&gt;&lt;br&gt;event chain following the HMS Undaunted, player chooses how it ends" style="rounded=0;whiteSpace=wrap;html=1;fillColor=#f5f5f5;gradientColor=#b3b3b3;strokeColor=#666666;fontFamily=Georgia;fontSize=9;verticalAlign=middle;" vertex="1" parent="1">
          <mxGeometry x="728" y="280" width="224" height="112" as="geometry" />
        </mxCell>
        <mxCell id="yz8sDFow9ecl2K3A8M4w-7" style="edgeStyle=orthogonalEdgeStyle;rounded=0;orthogonalLoop=1;jettySize=auto;html=1;" edge="1" parent="1" source="yz8sDFow9ecl2K3A8M4w-4" target="yz8sDFow9ecl2K3A8M4w-6">
          <mxGeometry relative="1" as="geometry" />
        </mxCell>
        <mxCell id="yz8sDFow9ecl2K3A8M4w-4" value="&lt;font style=&quot;font-size: 12px;&quot;&gt;Lockdown the Harbour&lt;/font&gt;&lt;br&gt;&lt;br&gt;wip" style="rounded=0;whiteSpace=wrap;html=1;fillColor=#f5f5f5;gradientColor=#b3b3b3;strokeColor=#666666;fontFamily=Georgia;fontSize=9;verticalAlign=middle;" vertex="1" parent="1">
          <mxGeometry x="728" y="504" width="224" height="112" as="geometry" />
        </mxCell>
        <mxCell id="yz8sDFow9ecl2K3A8M4w-71" style="edgeStyle=orthogonalEdgeStyle;rounded=0;orthogonalLoop=1;jettySize=auto;html=1;" edge="1" parent="1" source="yz8sDFow9ecl2K3A8M4w-6" target="yz8sDFow9ecl2K3A8M4w-69">
          <mxGeometry relative="1" as="geometry" />
        </mxCell>
        <mxCell id="yz8sDFow9ecl2K3A8M4w-6" value="&lt;font style=&quot;font-size: 12px;&quot;&gt;Address the Public&lt;/font&gt;&lt;br&gt;&lt;br&gt;wip" style="rounded=0;whiteSpace=wrap;html=1;fillColor=#f5f5f5;gradientColor=#b3b3b3;strokeColor=#666666;fontFamily=Georgia;fontSize=9;verticalAlign=middle;" vertex="1" parent="1">
          <mxGeometry x="728" y="728" width="224" height="112" as="geometry" />
        </mxCell>
        <mxCell id="yz8sDFow9ecl2K3A8M4w-16" style="edgeStyle=orthogonalEdgeStyle;rounded=0;orthogonalLoop=1;jettySize=auto;html=1;" edge="1" parent="1" source="yz8sDFow9ecl2K3A8M4w-8" target="yz8sDFow9ecl2K3A8M4w-14">
          <mxGeometry relative="1" as="geometry" />
        </mxCell>
        <mxCell id="yz8sDFow9ecl2K3A8M4w-17" style="edgeStyle=orthogonalEdgeStyle;rounded=0;orthogonalLoop=1;jettySize=auto;html=1;" edge="1" parent="1" source="yz8sDFow9ecl2K3A8M4w-8" target="yz8sDFow9ecl2K3A8M4w-15">
          <mxGeometry relative="1" as="geometry" />
        </mxCell>
        <mxCell id="yz8sDFow9ecl2K3A8M4w-8" value="&lt;font style=&quot;font-size: 12px;&quot;&gt;Dredge the Vessel&lt;/font&gt;&lt;br&gt;&lt;br&gt;recovers parts of the ship, costing shipyards for a short time" style="rounded=0;whiteSpace=wrap;html=1;fillColor=#f5f5f5;gradientColor=#b3b3b3;strokeColor=#666666;fontFamily=Georgia;fontSize=9;verticalAlign=middle;" vertex="1" parent="1">
          <mxGeometry x="222" y="504" width="224" height="112" as="geometry" />
        </mxCell>
        <mxCell id="yz8sDFow9ecl2K3A8M4w-22" style="edgeStyle=orthogonalEdgeStyle;rounded=0;orthogonalLoop=1;jettySize=auto;html=1;" edge="1" parent="1" source="yz8sDFow9ecl2K3A8M4w-10" target="yz8sDFow9ecl2K3A8M4w-18">
          <mxGeometry relative="1" as="geometry" />
        </mxCell>
        <mxCell id="yz8sDFow9ecl2K3A8M4w-24" style="edgeStyle=orthogonalEdgeStyle;rounded=0;orthogonalLoop=1;jettySize=auto;html=1;" edge="1" parent="1" source="yz8sDFow9ecl2K3A8M4w-10" target="yz8sDFow9ecl2K3A8M4w-23">
          <mxGeometry relative="1" as="geometry" />
        </mxCell>
        <mxCell id="yz8sDFow9ecl2K3A8M4w-10" value="&lt;font style=&quot;font-size: 12px;&quot;&gt;The Ailing Madman&lt;/font&gt;&lt;br&gt;&lt;br&gt;brings the sole survivor of the HMS Undaunted" style="rounded=0;whiteSpace=wrap;html=1;fillColor=#f5f5f5;gradientColor=#b3b3b3;strokeColor=#666666;fontFamily=Georgia;fontSize=9;verticalAlign=middle;" vertex="1" parent="1">
          <mxGeometry x="1232" y="504" width="224" height="112" as="geometry" />
        </mxCell>
        <mxCell id="yz8sDFow9ecl2K3A8M4w-90" style="edgeStyle=orthogonalEdgeStyle;rounded=0;orthogonalLoop=1;jettySize=auto;html=1;entryX=0;entryY=0.5;entryDx=0;entryDy=0;" edge="1" parent="1" source="yz8sDFow9ecl2K3A8M4w-14" target="yz8sDFow9ecl2K3A8M4w-57">
          <mxGeometry relative="1" as="geometry">
            <Array as="points">
              <mxPoint x="168" y="896" />
              <mxPoint x="288" y="896" />
            </Array>
          </mxGeometry>
        </mxCell>
        <mxCell id="yz8sDFow9ecl2K3A8M4w-14" value="&lt;font style=&quot;font-size: 12px;&quot;&gt;Phantasmic Molluscs&lt;/font&gt;&lt;br&gt;&lt;br&gt;study the cliones, giving naval bonuses and experience" style="rounded=0;whiteSpace=wrap;html=1;fillColor=#d5e8d4;gradientColor=#97d077;strokeColor=#82b366;fontFamily=Georgia;fontSize=9;verticalAlign=middle;" vertex="1" parent="1">
          <mxGeometry x="56" y="728" width="224" height="112" as="geometry" />
        </mxCell>
        <mxCell id="yz8sDFow9ecl2K3A8M4w-89" style="edgeStyle=orthogonalEdgeStyle;rounded=0;orthogonalLoop=1;jettySize=auto;html=1;entryX=1;entryY=0.5;entryDx=0;entryDy=0;" edge="1" parent="1" source="yz8sDFow9ecl2K3A8M4w-15" target="yz8sDFow9ecl2K3A8M4w-57">
          <mxGeometry relative="1" as="geometry">
            <Array as="points">
              <mxPoint x="504" y="896" />
              <mxPoint x="384" y="896" />
            </Array>
          </mxGeometry>
        </mxCell>
        <mxCell id="yz8sDFow9ecl2K3A8M4w-15" value="&lt;span style=&quot;font-size: 12px;&quot;&gt;The Admiral&#39;s Gathering&lt;/span&gt;&lt;br&gt;&lt;br&gt;wip" style="rounded=0;whiteSpace=wrap;html=1;fillColor=#f5f5f5;gradientColor=#b3b3b3;strokeColor=#666666;fontFamily=Georgia;fontSize=9;verticalAlign=middle;" vertex="1" parent="1">
          <mxGeometry x="392" y="728" width="224" height="112" as="geometry" />
        </mxCell>
        <mxCell id="yz8sDFow9ecl2K3A8M4w-91" style="edgeStyle=orthogonalEdgeStyle;rounded=0;orthogonalLoop=1;jettySize=auto;html=1;entryX=0;entryY=0.5;entryDx=0;entryDy=0;" edge="1" parent="1" source="yz8sDFow9ecl2K3A8M4w-18" target="yz8sDFow9ecl2K3A8M4w-62">
          <mxGeometry relative="1" as="geometry">
            <Array as="points">
              <mxPoint x="1176" y="896" />
              <mxPoint x="1296" y="896" />
            </Array>
          </mxGeometry>
        </mxCell>
        <mxCell id="yz8sDFow9ecl2K3A8M4w-18" value="&lt;font style=&quot;font-size: 12px;&quot;&gt;Invasive Excision&lt;/font&gt;&lt;br&gt;&lt;br&gt;perform an experimental lobotomy on the madman, inadvertently causing his death" style="rounded=0;whiteSpace=wrap;html=1;fillColor=#f5f5f5;gradientColor=#b3b3b3;strokeColor=#666666;fontFamily=Georgia;fontSize=9;verticalAlign=middle;" vertex="1" parent="1">
          <mxGeometry x="1064" y="728" width="224" height="112" as="geometry" />
        </mxCell>
        <mxCell id="yz8sDFow9ecl2K3A8M4w-88" style="edgeStyle=orthogonalEdgeStyle;rounded=0;orthogonalLoop=1;jettySize=auto;html=1;entryX=1;entryY=0.5;entryDx=0;entryDy=0;" edge="1" parent="1" source="yz8sDFow9ecl2K3A8M4w-23" target="yz8sDFow9ecl2K3A8M4w-62">
          <mxGeometry relative="1" as="geometry">
            <Array as="points">
              <mxPoint x="1512" y="896" />
              <mxPoint x="1392" y="896" />
            </Array>
          </mxGeometry>
        </mxCell>
        <mxCell id="yz8sDFow9ecl2K3A8M4w-167" style="edgeStyle=orthogonalEdgeStyle;rounded=0;orthogonalLoop=1;jettySize=auto;html=1;" edge="1" parent="1" source="yz8sDFow9ecl2K3A8M4w-23" target="yz8sDFow9ecl2K3A8M4w-166">
          <mxGeometry relative="1" as="geometry" />
        </mxCell>
        <mxCell id="yz8sDFow9ecl2K3A8M4w-23" value="&lt;font style=&quot;font-size: 12px;&quot;&gt;Furtive Guidance&lt;/font&gt;&lt;br&gt;&lt;br&gt;brings the sole survivor of the HMS Undaunted" style="rounded=0;whiteSpace=wrap;html=1;fillColor=#d5e8d4;gradientColor=#97d077;strokeColor=#82b366;fontFamily=Georgia;fontSize=9;verticalAlign=middle;" vertex="1" parent="1">
          <mxGeometry x="1400" y="728" width="224" height="112" as="geometry" />
        </mxCell>
        <mxCell id="yz8sDFow9ecl2K3A8M4w-25" value="" style="whiteSpace=wrap;html=1;aspect=fixed;fillColor=#f5f5f5;gradientColor=#b3b3b3;strokeColor=#666666;rounded=0;" vertex="1" parent="1">
          <mxGeometry x="56" y="56" width="27" height="27" as="geometry" />
        </mxCell>
        <mxCell id="yz8sDFow9ecl2K3A8M4w-36" value="= Always Available" style="text;html=1;strokeColor=none;fillColor=none;align=left;verticalAlign=middle;whiteSpace=wrap;rounded=0;fontFamily=Georgia;fontSize=11;" vertex="1" parent="1">
          <mxGeometry x="83" y="56" width="98" height="13.5" as="geometry" />
        </mxCell>
        <mxCell id="yz8sDFow9ecl2K3A8M4w-37" value="" style="whiteSpace=wrap;html=1;aspect=fixed;fillColor=#d5e8d4;strokeColor=#82b366;gradientColor=#97d077;rounded=0;" vertex="1" parent="1">
          <mxGeometry x="56" y="111.5" width="27" height="27" as="geometry" />
        </mxCell>
        <mxCell id="yz8sDFow9ecl2K3A8M4w-38" value="= Available under&amp;nbsp; &amp;nbsp; &amp;nbsp; &amp;nbsp; &amp;nbsp; &amp;nbsp; &amp;nbsp;certain conditions" style="text;html=1;strokeColor=none;fillColor=none;align=left;verticalAlign=middle;whiteSpace=wrap;rounded=0;fontFamily=Georgia;fontSize=11;" vertex="1" parent="1">
          <mxGeometry x="83" y="111.5" width="113" height="42" as="geometry" />
        </mxCell>
        <mxCell id="yz8sDFow9ecl2K3A8M4w-39" value="The Expedetion event option" style="rounded=0;whiteSpace=wrap;fillColor=#d5e8d4;strokeColor=#82b366;gradientColor=#97d077;fontSize=9;fontFamily=Georgia;" vertex="1" parent="1">
          <mxGeometry x="1386" y="714" width="98" height="28" as="geometry" />
        </mxCell>
        <mxCell id="yz8sDFow9ecl2K3A8M4w-40" value="The Expedetion event option" style="rounded=0;whiteSpace=wrap;fillColor=#d5e8d4;strokeColor=#82b366;gradientColor=#97d077;fontSize=9;fontFamily=Georgia;" vertex="1" parent="1">
          <mxGeometry x="42" y="714" width="98" height="28" as="geometry" />
        </mxCell>
        <mxCell id="yz8sDFow9ecl2K3A8M4w-95" style="edgeStyle=orthogonalEdgeStyle;rounded=0;orthogonalLoop=1;jettySize=auto;html=1;" edge="1" parent="1" source="yz8sDFow9ecl2K3A8M4w-45" target="yz8sDFow9ecl2K3A8M4w-94">
          <mxGeometry relative="1" as="geometry" />
        </mxCell>
        <mxCell id="yz8sDFow9ecl2K3A8M4w-97" style="edgeStyle=orthogonalEdgeStyle;rounded=0;orthogonalLoop=1;jettySize=auto;html=1;" edge="1" parent="1" source="yz8sDFow9ecl2K3A8M4w-45" target="yz8sDFow9ecl2K3A8M4w-96">
          <mxGeometry relative="1" as="geometry" />
        </mxCell>
        <mxCell id="yz8sDFow9ecl2K3A8M4w-45" value="&lt;font style=&quot;font-size: 12px;&quot;&gt;Hunger of a Nation&lt;/font&gt;&lt;br&gt;&lt;br&gt;wip" style="rounded=0;whiteSpace=wrap;html=1;fillColor=#f5f5f5;gradientColor=#b3b3b3;strokeColor=#666666;fontFamily=Georgia;fontSize=9;verticalAlign=middle;" vertex="1" parent="1">
          <mxGeometry x="728" y="1008" width="224" height="112" as="geometry" />
        </mxCell>
        <mxCell id="yz8sDFow9ecl2K3A8M4w-49" value="" style="whiteSpace=wrap;html=1;aspect=fixed;fillColor=#fff2cc;gradientColor=#ffd966;strokeColor=#d6b656;rounded=0;" vertex="1" parent="1">
          <mxGeometry x="56" y="168" width="27" height="27" as="geometry" />
        </mxCell>
        <mxCell id="yz8sDFow9ecl2K3A8M4w-50" value="= Hidden unless&amp;nbsp; &amp;nbsp; &amp;nbsp; &amp;nbsp; &amp;nbsp; unlocked" style="text;html=1;strokeColor=none;fillColor=none;align=left;verticalAlign=middle;whiteSpace=wrap;rounded=0;fontFamily=Georgia;fontSize=11;" vertex="1" parent="1">
          <mxGeometry x="83" y="168" width="98" height="27" as="geometry" />
        </mxCell>
        <mxCell id="yz8sDFow9ecl2K3A8M4w-80" style="edgeStyle=orthogonalEdgeStyle;rounded=0;orthogonalLoop=1;jettySize=auto;html=1;" edge="1" parent="1" source="yz8sDFow9ecl2K3A8M4w-57" target="yz8sDFow9ecl2K3A8M4w-69">
          <mxGeometry relative="1" as="geometry">
            <Array as="points">
              <mxPoint x="334" y="951.5" />
            </Array>
          </mxGeometry>
        </mxCell>
        <mxCell id="yz8sDFow9ecl2K3A8M4w-57" value="OR" style="ellipse;whiteSpace=wrap;html=1;fillColor=#e51400;fontColor=#ffffff;strokeColor=#B20000;rounded=0;" vertex="1" parent="1">
          <mxGeometry x="308" y="881.5" width="56" height="28" as="geometry" />
        </mxCell>
        <mxCell id="yz8sDFow9ecl2K3A8M4w-92" style="edgeStyle=orthogonalEdgeStyle;rounded=0;orthogonalLoop=1;jettySize=auto;html=1;entryX=1;entryY=0.5;entryDx=0;entryDy=0;" edge="1" parent="1" source="yz8sDFow9ecl2K3A8M4w-62" target="yz8sDFow9ecl2K3A8M4w-69">
          <mxGeometry relative="1" as="geometry">
            <Array as="points">
              <mxPoint x="1344" y="952" />
              <mxPoint x="1092" y="952" />
            </Array>
          </mxGeometry>
        </mxCell>
        <mxCell id="yz8sDFow9ecl2K3A8M4w-62" value="OR" style="ellipse;whiteSpace=wrap;html=1;fillColor=#e51400;strokeColor=#B20000;fontColor=#ffffff;rounded=0;" vertex="1" parent="1">
          <mxGeometry x="1316" y="881.5" width="56" height="28" as="geometry" />
        </mxCell>
        <mxCell id="yz8sDFow9ecl2K3A8M4w-73" style="edgeStyle=orthogonalEdgeStyle;rounded=0;orthogonalLoop=1;jettySize=auto;html=1;entryX=0.5;entryY=0;entryDx=0;entryDy=0;" edge="1" parent="1" source="yz8sDFow9ecl2K3A8M4w-69" target="yz8sDFow9ecl2K3A8M4w-45">
          <mxGeometry relative="1" as="geometry" />
        </mxCell>
        <mxCell id="yz8sDFow9ecl2K3A8M4w-69" value="AND" style="rounded=0;whiteSpace=wrap;html=1;fillColor=#d5e8d4;strokeColor=#82b366;" vertex="1" parent="1">
          <mxGeometry x="812" y="937.5" width="56" height="28" as="geometry" />
        </mxCell>
        <mxCell id="yz8sDFow9ecl2K3A8M4w-74" value="+1 Curse Depth (Opt.)" style="rounded=0;fillColor=#f5f5f5;gradientColor=#b3b3b3;strokeColor=#666666;fontFamily=Georgia;fontSize=9;align=center;fontColor=#3399FF;whiteSpace=wrap;" vertex="1" parent="1">
          <mxGeometry x="868" y="266" width="98" height="27.5" as="geometry" />
        </mxCell>
        <mxCell id="yz8sDFow9ecl2K3A8M4w-76" value="+5 Curse Depth" style="rounded=0;fillColor=#f5f5f5;gradientColor=#b3b3b3;strokeColor=#666666;fontFamily=Georgia;fontSize=9;align=center;fontColor=#3399FF;whiteSpace=wrap;" vertex="1" parent="1">
          <mxGeometry x="1204" y="714" width="97" height="28" as="geometry" />
        </mxCell>
        <mxCell id="yz8sDFow9ecl2K3A8M4w-93" value="+2 Curse Depth" style="rounded=0;fillColor=#f5f5f5;gradientColor=#b3b3b3;strokeColor=#666666;fontFamily=Georgia;fontSize=9;align=center;fontColor=#3399FF;whiteSpace=wrap;" vertex="1" parent="1">
          <mxGeometry x="1371" y="490" width="98" height="28" as="geometry" />
        </mxCell>
        <mxCell id="yz8sDFow9ecl2K3A8M4w-100" style="edgeStyle=orthogonalEdgeStyle;rounded=0;orthogonalLoop=1;jettySize=auto;html=1;" edge="1" parent="1" source="yz8sDFow9ecl2K3A8M4w-94" target="yz8sDFow9ecl2K3A8M4w-98">
          <mxGeometry relative="1" as="geometry" />
        </mxCell>
        <mxCell id="yz8sDFow9ecl2K3A8M4w-94" value="&lt;font style=&quot;font-size: 12px;&quot;&gt;Dire Times&lt;/font&gt;&lt;br&gt;&lt;br&gt;wip" style="rounded=0;whiteSpace=wrap;html=1;fillColor=#f5f5f5;gradientColor=#b3b3b3;strokeColor=#666666;fontFamily=Georgia;fontSize=9;verticalAlign=middle;" vertex="1" parent="1">
          <mxGeometry x="560" y="1232" width="224" height="112" as="geometry" />
        </mxCell>
        <mxCell id="yz8sDFow9ecl2K3A8M4w-101" style="edgeStyle=orthogonalEdgeStyle;rounded=0;orthogonalLoop=1;jettySize=auto;html=1;" edge="1" parent="1" source="yz8sDFow9ecl2K3A8M4w-96" target="yz8sDFow9ecl2K3A8M4w-99">
          <mxGeometry relative="1" as="geometry" />
        </mxCell>
        <mxCell id="yz8sDFow9ecl2K3A8M4w-96" value="&lt;font style=&quot;font-size: 12px;&quot;&gt;Immediate Re-Election&lt;/font&gt;&lt;br&gt;&lt;br&gt;wip" style="rounded=0;whiteSpace=wrap;html=1;fillColor=#f5f5f5;gradientColor=#b3b3b3;strokeColor=#666666;fontFamily=Georgia;fontSize=9;verticalAlign=middle;" vertex="1" parent="1">
          <mxGeometry x="896" y="1232" width="224" height="112" as="geometry" />
        </mxCell>
        <mxCell id="yz8sDFow9ecl2K3A8M4w-98" value="&lt;font style=&quot;font-size: 12px;&quot;&gt;Promises to Agriculturalists&lt;/font&gt;&lt;br&gt;&lt;br&gt;wip" style="rounded=0;whiteSpace=wrap;html=1;fillColor=#f5f5f5;gradientColor=#b3b3b3;strokeColor=#666666;fontFamily=Georgia;fontSize=9;verticalAlign=middle;" vertex="1" parent="1">
          <mxGeometry x="560" y="1456" width="224" height="112" as="geometry" />
        </mxCell>
        <mxCell id="yz8sDFow9ecl2K3A8M4w-99" value="&lt;font style=&quot;font-size: 12px;&quot;&gt;Radical Reforms&lt;/font&gt;&lt;br&gt;&lt;br&gt;wip" style="rounded=0;whiteSpace=wrap;html=1;fillColor=#f5f5f5;gradientColor=#b3b3b3;strokeColor=#666666;fontFamily=Georgia;fontSize=9;verticalAlign=middle;" vertex="1" parent="1">
          <mxGeometry x="896" y="1456" width="224" height="112" as="geometry" />
        </mxCell>
        <mxCell id="yz8sDFow9ecl2K3A8M4w-106" style="edgeStyle=orthogonalEdgeStyle;rounded=0;orthogonalLoop=1;jettySize=auto;html=1;" edge="1" parent="1" source="yz8sDFow9ecl2K3A8M4w-102" target="yz8sDFow9ecl2K3A8M4w-104">
          <mxGeometry relative="1" as="geometry" />
        </mxCell>
        <mxCell id="yz8sDFow9ecl2K3A8M4w-102" value="&lt;span style=&quot;font-size: 12px;&quot;&gt;Repayments to Manchester&lt;/span&gt;&lt;br&gt;&lt;br&gt;two years after the execution of the Manchester Martyrs, we payback the affected families gives pol power while gaining a spirit that drains civ power for a while" style="rounded=0;whiteSpace=wrap;html=1;fillColor=#f5f5f5;gradientColor=#b3b3b3;strokeColor=#666666;fontFamily=Georgia;fontSize=9;verticalAlign=middle;" vertex="1" parent="1">
          <mxGeometry x="2240" y="56" width="224" height="112" as="geometry" />
        </mxCell>
        <mxCell id="yz8sDFow9ecl2K3A8M4w-112" style="edgeStyle=orthogonalEdgeStyle;rounded=0;orthogonalLoop=1;jettySize=auto;html=1;entryX=0;entryY=0.5;entryDx=0;entryDy=0;" edge="1" parent="1" source="yz8sDFow9ecl2K3A8M4w-103" target="yz8sDFow9ecl2K3A8M4w-110">
          <mxGeometry relative="1" as="geometry">
            <Array as="points">
              <mxPoint x="2016" y="449" />
            </Array>
          </mxGeometry>
        </mxCell>
        <mxCell id="yz8sDFow9ecl2K3A8M4w-115" style="edgeStyle=orthogonalEdgeStyle;rounded=0;orthogonalLoop=1;jettySize=auto;html=1;" edge="1" parent="1" source="yz8sDFow9ecl2K3A8M4w-103" target="yz8sDFow9ecl2K3A8M4w-114">
          <mxGeometry relative="1" as="geometry" />
        </mxCell>
        <mxCell id="yz8sDFow9ecl2K3A8M4w-103" value="&lt;span style=&quot;font-size: 12px;&quot;&gt;Military Planning&lt;/span&gt;&lt;br&gt;&lt;br&gt;wip" style="rounded=0;whiteSpace=wrap;html=1;fillColor=#f5f5f5;gradientColor=#b3b3b3;strokeColor=#666666;fontFamily=Georgia;fontSize=9;verticalAlign=middle;" vertex="1" parent="1">
          <mxGeometry x="1904" y="281" width="224" height="112" as="geometry" />
        </mxCell>
        <mxCell id="yz8sDFow9ecl2K3A8M4w-111" style="edgeStyle=orthogonalEdgeStyle;rounded=0;orthogonalLoop=1;jettySize=auto;html=1;entryX=1;entryY=0.5;entryDx=0;entryDy=0;" edge="1" parent="1" source="yz8sDFow9ecl2K3A8M4w-104" target="yz8sDFow9ecl2K3A8M4w-110">
          <mxGeometry relative="1" as="geometry">
            <Array as="points">
              <mxPoint x="2352" y="449" />
            </Array>
          </mxGeometry>
        </mxCell>
        <mxCell id="yz8sDFow9ecl2K3A8M4w-117" style="edgeStyle=orthogonalEdgeStyle;rounded=0;orthogonalLoop=1;jettySize=auto;html=1;" edge="1" parent="1" source="yz8sDFow9ecl2K3A8M4w-104" target="yz8sDFow9ecl2K3A8M4w-116">
          <mxGeometry relative="1" as="geometry" />
        </mxCell>
        <mxCell id="yz8sDFow9ecl2K3A8M4w-104" value="&lt;span style=&quot;font-size: 12px;&quot;&gt;Cutting Ties&lt;/span&gt;&lt;br&gt;&lt;br&gt;releases ireland as a parliamentary subject" style="rounded=0;whiteSpace=wrap;html=1;fillColor=#d5e8d4;gradientColor=#97d077;strokeColor=#82b366;fontFamily=Georgia;fontSize=9;verticalAlign=middle;" vertex="1" parent="1">
          <mxGeometry x="2240" y="281" width="224" height="112" as="geometry" />
        </mxCell>
        <mxCell id="yz8sDFow9ecl2K3A8M4w-119" style="edgeStyle=orthogonalEdgeStyle;rounded=0;orthogonalLoop=1;jettySize=auto;html=1;" edge="1" parent="1" source="yz8sDFow9ecl2K3A8M4w-107" target="yz8sDFow9ecl2K3A8M4w-118">
          <mxGeometry relative="1" as="geometry" />
        </mxCell>
        <mxCell id="yz8sDFow9ecl2K3A8M4w-107" value="&lt;span style=&quot;font-size: 12px;&quot;&gt;Organisation of Intelligence&lt;/span&gt;&lt;br&gt;&lt;br&gt;wip" style="rounded=0;whiteSpace=wrap;html=1;fillColor=#f5f5f5;gradientColor=#b3b3b3;strokeColor=#666666;fontFamily=Georgia;fontSize=9;verticalAlign=middle;" vertex="1" parent="1">
          <mxGeometry x="2072" y="505" width="224" height="112" as="geometry" />
        </mxCell>
        <mxCell id="yz8sDFow9ecl2K3A8M4w-113" style="edgeStyle=orthogonalEdgeStyle;rounded=0;orthogonalLoop=1;jettySize=auto;html=1;" edge="1" parent="1" source="yz8sDFow9ecl2K3A8M4w-110" target="yz8sDFow9ecl2K3A8M4w-107">
          <mxGeometry relative="1" as="geometry" />
        </mxCell>
        <mxCell id="yz8sDFow9ecl2K3A8M4w-110" value="OR" style="ellipse;whiteSpace=wrap;html=1;fillColor=#e51400;strokeColor=#B20000;fontColor=#ffffff;rounded=0;" vertex="1" parent="1">
          <mxGeometry x="2156" y="435" width="56" height="28" as="geometry" />
        </mxCell>
        <mxCell id="yz8sDFow9ecl2K3A8M4w-114" value="&lt;span style=&quot;font-size: 12px;&quot;&gt;Teachings of Homeland Wars&lt;/span&gt;&lt;br&gt;&lt;br&gt;wip" style="rounded=0;whiteSpace=wrap;html=1;fillColor=#d5e8d4;gradientColor=#97d077;strokeColor=#82b366;fontFamily=Georgia;fontSize=9;verticalAlign=middle;" vertex="1" parent="1">
          <mxGeometry x="1736" y="505" width="224" height="112" as="geometry" />
        </mxCell>
        <mxCell id="yz8sDFow9ecl2K3A8M4w-116" value="&lt;span style=&quot;font-size: 12px;&quot;&gt;Inter-Polity Dialogue&lt;/span&gt;&lt;br&gt;&lt;br&gt;wip" style="rounded=0;whiteSpace=wrap;html=1;fillColor=#f5f5f5;gradientColor=#b3b3b3;strokeColor=#666666;fontFamily=Georgia;fontSize=9;verticalAlign=middle;" vertex="1" parent="1">
          <mxGeometry x="2408" y="505" width="224" height="112" as="geometry" />
        </mxCell>
        <mxCell id="yz8sDFow9ecl2K3A8M4w-118" value="&lt;span style=&quot;font-size: 12px;&quot;&gt;Committee of Imperial Defence&lt;/span&gt;&lt;br&gt;&lt;br&gt;wip" style="rounded=0;whiteSpace=wrap;html=1;fillColor=#f5f5f5;gradientColor=#b3b3b3;strokeColor=#666666;fontFamily=Georgia;fontSize=9;verticalAlign=middle;" vertex="1" parent="1">
          <mxGeometry x="2072" y="728" width="224" height="112" as="geometry" />
        </mxCell>
        <mxCell id="yz8sDFow9ecl2K3A8M4w-129" style="edgeStyle=orthogonalEdgeStyle;rounded=0;orthogonalLoop=1;jettySize=auto;html=1;" edge="1" parent="1" source="yz8sDFow9ecl2K3A8M4w-120" target="yz8sDFow9ecl2K3A8M4w-122">
          <mxGeometry relative="1" as="geometry" />
        </mxCell>
        <mxCell id="yz8sDFow9ecl2K3A8M4w-120" value="&lt;span style=&quot;font-size: 12px;&quot;&gt;The Spectre Fright&lt;/span&gt;&lt;br&gt;&lt;br&gt;wip" style="rounded=0;whiteSpace=wrap;html=1;fillColor=#f5f5f5;gradientColor=#b3b3b3;strokeColor=#666666;fontFamily=Georgia;fontSize=9;verticalAlign=middle;" vertex="1" parent="1">
          <mxGeometry x="728" y="1680" width="224" height="112" as="geometry" />
        </mxCell>
        <mxCell id="yz8sDFow9ecl2K3A8M4w-135" style="edgeStyle=orthogonalEdgeStyle;rounded=0;orthogonalLoop=1;jettySize=auto;html=1;" edge="1" parent="1" source="yz8sDFow9ecl2K3A8M4w-121" target="yz8sDFow9ecl2K3A8M4w-127">
          <mxGeometry relative="1" as="geometry" />
        </mxCell>
        <mxCell id="yz8sDFow9ecl2K3A8M4w-136" style="edgeStyle=orthogonalEdgeStyle;rounded=0;orthogonalLoop=1;jettySize=auto;html=1;" edge="1" parent="1" source="yz8sDFow9ecl2K3A8M4w-121" target="yz8sDFow9ecl2K3A8M4w-123">
          <mxGeometry relative="1" as="geometry">
            <Array as="points">
              <mxPoint x="1512" y="1848" />
              <mxPoint x="1176" y="1848" />
            </Array>
          </mxGeometry>
        </mxCell>
        <mxCell id="yz8sDFow9ecl2K3A8M4w-121" value="&lt;span style=&quot;font-size: 12px;&quot;&gt;Mutual Nightmares&lt;/span&gt;&lt;br&gt;&lt;br&gt;wip" style="rounded=0;whiteSpace=wrap;html=1;fillColor=#f5f5f5;gradientColor=#b3b3b3;strokeColor=#666666;fontFamily=Georgia;fontSize=9;verticalAlign=middle;" vertex="1" parent="1">
          <mxGeometry x="1400" y="1680" width="224" height="112" as="geometry" />
        </mxCell>
        <mxCell id="yz8sDFow9ecl2K3A8M4w-132" style="edgeStyle=orthogonalEdgeStyle;rounded=0;orthogonalLoop=1;jettySize=auto;html=1;entryX=0;entryY=0.5;entryDx=0;entryDy=0;" edge="1" parent="1" source="yz8sDFow9ecl2K3A8M4w-122" target="yz8sDFow9ecl2K3A8M4w-130">
          <mxGeometry relative="1" as="geometry">
            <Array as="points">
              <mxPoint x="840" y="2072" />
            </Array>
          </mxGeometry>
        </mxCell>
        <mxCell id="yz8sDFow9ecl2K3A8M4w-122" value="&lt;span style=&quot;font-size: 12px;&quot;&gt;The Gibson Capture Trials&lt;/span&gt;&lt;br&gt;&lt;br&gt;wip" style="rounded=0;whiteSpace=wrap;html=1;fillColor=#f5f5f5;gradientColor=#b3b3b3;strokeColor=#666666;fontFamily=Georgia;fontSize=9;verticalAlign=middle;" vertex="1" parent="1">
          <mxGeometry x="728" y="1904" width="224" height="112" as="geometry" />
        </mxCell>
        <mxCell id="yz8sDFow9ecl2K3A8M4w-133" style="edgeStyle=orthogonalEdgeStyle;rounded=0;orthogonalLoop=1;jettySize=auto;html=1;entryX=1;entryY=0.5;entryDx=0;entryDy=0;" edge="1" parent="1" source="yz8sDFow9ecl2K3A8M4w-123" target="yz8sDFow9ecl2K3A8M4w-130">
          <mxGeometry relative="1" as="geometry">
            <Array as="points">
              <mxPoint x="1176" y="2072" />
            </Array>
          </mxGeometry>
        </mxCell>
        <mxCell id="yz8sDFow9ecl2K3A8M4w-123" value="&lt;span style=&quot;font-size: 12px;&quot;&gt;Assurance Campaign&lt;/span&gt;&lt;br&gt;&lt;br&gt;wip" style="rounded=0;whiteSpace=wrap;html=1;fillColor=#f5f5f5;gradientColor=#b3b3b3;strokeColor=#666666;fontFamily=Georgia;fontSize=9;verticalAlign=middle;" vertex="1" parent="1">
          <mxGeometry x="1064" y="1904" width="224" height="112" as="geometry" />
        </mxCell>
        <mxCell id="yz8sDFow9ecl2K3A8M4w-124" value="&lt;span style=&quot;font-size: 12px;&quot;&gt;Department Supernatural&lt;/span&gt;&lt;br&gt;&lt;br&gt;wip" style="rounded=0;whiteSpace=wrap;html=1;fillColor=#f5f5f5;gradientColor=#b3b3b3;strokeColor=#666666;fontFamily=Georgia;fontSize=9;verticalAlign=middle;" vertex="1" parent="1">
          <mxGeometry x="896" y="2352" width="224" height="112" as="geometry" />
        </mxCell>
        <mxCell id="yz8sDFow9ecl2K3A8M4w-128" style="edgeStyle=orthogonalEdgeStyle;rounded=0;orthogonalLoop=1;jettySize=auto;html=1;" edge="1" parent="1" source="yz8sDFow9ecl2K3A8M4w-125" target="yz8sDFow9ecl2K3A8M4w-126">
          <mxGeometry relative="1" as="geometry" />
        </mxCell>
        <mxCell id="yz8sDFow9ecl2K3A8M4w-125" value="&lt;span style=&quot;font-size: 12px;&quot;&gt;Wescott&#39;s Temple&lt;/span&gt;&lt;br&gt;&lt;br&gt;wip" style="rounded=0;whiteSpace=wrap;html=1;fillColor=#f5f5f5;gradientColor=#b3b3b3;strokeColor=#666666;fontFamily=Georgia;fontSize=9;verticalAlign=middle;" vertex="1" parent="1">
          <mxGeometry x="392" y="1904" width="224" height="112" as="geometry" />
        </mxCell>
        <mxCell id="yz8sDFow9ecl2K3A8M4w-126" value="&lt;span style=&quot;font-size: 12px;&quot;&gt;The Order, Bolstered&lt;/span&gt;&lt;br&gt;&lt;br&gt;wip" style="rounded=0;whiteSpace=wrap;html=1;fillColor=#f5f5f5;gradientColor=#b3b3b3;strokeColor=#666666;fontFamily=Georgia;fontSize=9;verticalAlign=middle;" vertex="1" parent="1">
          <mxGeometry x="392" y="2352" width="224" height="112" as="geometry" />
        </mxCell>
        <mxCell id="yz8sDFow9ecl2K3A8M4w-138" style="edgeStyle=orthogonalEdgeStyle;rounded=0;orthogonalLoop=1;jettySize=auto;html=1;" edge="1" parent="1" source="yz8sDFow9ecl2K3A8M4w-127" target="yz8sDFow9ecl2K3A8M4w-137">
          <mxGeometry relative="1" as="geometry">
            <Array as="points">
              <mxPoint x="1512" y="2296" />
              <mxPoint x="1400" y="2296" />
            </Array>
          </mxGeometry>
        </mxCell>
        <mxCell id="yz8sDFow9ecl2K3A8M4w-127" value="&lt;span style=&quot;font-size: 12px;&quot;&gt;Barbiturate&amp;nbsp;Development&lt;/span&gt;&lt;br&gt;&lt;br&gt;wip" style="rounded=0;whiteSpace=wrap;html=1;fillColor=#f5f5f5;gradientColor=#b3b3b3;strokeColor=#666666;fontFamily=Georgia;fontSize=9;verticalAlign=middle;" vertex="1" parent="1">
          <mxGeometry x="1400" y="2128" width="224" height="112" as="geometry" />
        </mxCell>
        <mxCell id="yz8sDFow9ecl2K3A8M4w-134" style="edgeStyle=orthogonalEdgeStyle;rounded=0;orthogonalLoop=1;jettySize=auto;html=1;" edge="1" parent="1" source="yz8sDFow9ecl2K3A8M4w-130" target="yz8sDFow9ecl2K3A8M4w-124">
          <mxGeometry relative="1" as="geometry" />
        </mxCell>
        <mxCell id="yz8sDFow9ecl2K3A8M4w-130" value="OR" style="ellipse;whiteSpace=wrap;html=1;fillColor=#e51400;fontColor=#ffffff;strokeColor=#B20000;rounded=0;" vertex="1" parent="1">
          <mxGeometry x="980" y="2058" width="56" height="28" as="geometry" />
        </mxCell>
        <mxCell id="yz8sDFow9ecl2K3A8M4w-137" value="&lt;span style=&quot;font-size: 12px;&quot;&gt;Asylum Subsidy Project&lt;/span&gt;&lt;br&gt;&lt;br&gt;wip" style="rounded=0;whiteSpace=wrap;html=1;fillColor=#f5f5f5;gradientColor=#b3b3b3;strokeColor=#666666;fontFamily=Georgia;fontSize=9;verticalAlign=middle;" vertex="1" parent="1">
          <mxGeometry x="1288" y="2576" width="224" height="112" as="geometry" />
        </mxCell>
        <mxCell id="yz8sDFow9ecl2K3A8M4w-142" style="edgeStyle=orthogonalEdgeStyle;rounded=0;orthogonalLoop=1;jettySize=auto;html=1;" edge="1" parent="1" source="yz8sDFow9ecl2K3A8M4w-140" target="yz8sDFow9ecl2K3A8M4w-141">
          <mxGeometry relative="1" as="geometry" />
        </mxCell>
        <mxCell id="yz8sDFow9ecl2K3A8M4w-146" style="edgeStyle=orthogonalEdgeStyle;rounded=0;orthogonalLoop=1;jettySize=auto;html=1;" edge="1" parent="1" source="yz8sDFow9ecl2K3A8M4w-140" target="yz8sDFow9ecl2K3A8M4w-145">
          <mxGeometry relative="1" as="geometry" />
        </mxCell>
        <mxCell id="yz8sDFow9ecl2K3A8M4w-140" value="&lt;span style=&quot;font-size: 12px;&quot;&gt;The Temple from &#39;Neath the Earth&lt;/span&gt;&lt;br&gt;&lt;br&gt;wip" style="rounded=0;whiteSpace=wrap;html=1;fillColor=#f5f5f5;gradientColor=#b3b3b3;strokeColor=#666666;fontFamily=Georgia;fontSize=9;verticalAlign=middle;" vertex="1" parent="1">
          <mxGeometry x="2072" y="952" width="224" height="112" as="geometry" />
        </mxCell>
        <mxCell id="yz8sDFow9ecl2K3A8M4w-149" style="edgeStyle=orthogonalEdgeStyle;rounded=0;orthogonalLoop=1;jettySize=auto;html=1;entryX=1;entryY=0.5;entryDx=0;entryDy=0;" edge="1" parent="1" source="yz8sDFow9ecl2K3A8M4w-141" target="yz8sDFow9ecl2K3A8M4w-148">
          <mxGeometry relative="1" as="geometry">
            <Array as="points">
              <mxPoint x="2352" y="1344" />
            </Array>
          </mxGeometry>
        </mxCell>
        <mxCell id="yz8sDFow9ecl2K3A8M4w-141" value="&lt;span style=&quot;font-size: 12px;&quot;&gt;Rebuild and Never Return&lt;/span&gt;&lt;br&gt;&lt;br&gt;wip" style="rounded=0;whiteSpace=wrap;html=1;fillColor=#f5f5f5;gradientColor=#b3b3b3;strokeColor=#666666;fontFamily=Georgia;fontSize=9;verticalAlign=middle;" vertex="1" parent="1">
          <mxGeometry x="2240" y="1176" width="224" height="112" as="geometry" />
        </mxCell>
        <mxCell id="yz8sDFow9ecl2K3A8M4w-143" value="&lt;span style=&quot;font-size: 12px;&quot;&gt;Coastal Walling&lt;/span&gt;&lt;br&gt;&lt;br&gt;wip" style="rounded=0;whiteSpace=wrap;html=1;fillColor=#f5f5f5;gradientColor=#b3b3b3;strokeColor=#666666;fontFamily=Georgia;fontSize=9;verticalAlign=middle;" vertex="1" parent="1">
          <mxGeometry x="2072" y="1400" width="224" height="112" as="geometry" />
        </mxCell>
        <mxCell id="yz8sDFow9ecl2K3A8M4w-150" style="edgeStyle=orthogonalEdgeStyle;rounded=0;orthogonalLoop=1;jettySize=auto;html=1;entryX=0;entryY=0.5;entryDx=0;entryDy=0;" edge="1" parent="1" source="yz8sDFow9ecl2K3A8M4w-145" target="yz8sDFow9ecl2K3A8M4w-148">
          <mxGeometry relative="1" as="geometry">
            <Array as="points">
              <mxPoint x="2016" y="1344" />
            </Array>
          </mxGeometry>
        </mxCell>
        <mxCell id="yz8sDFow9ecl2K3A8M4w-156" style="edgeStyle=orthogonalEdgeStyle;rounded=0;orthogonalLoop=1;jettySize=auto;html=1;" edge="1" parent="1" source="yz8sDFow9ecl2K3A8M4w-145" target="yz8sDFow9ecl2K3A8M4w-155">
          <mxGeometry relative="1" as="geometry" />
        </mxCell>
        <mxCell id="yz8sDFow9ecl2K3A8M4w-160" style="edgeStyle=orthogonalEdgeStyle;rounded=0;orthogonalLoop=1;jettySize=auto;html=1;" edge="1" parent="1" source="yz8sDFow9ecl2K3A8M4w-145" target="yz8sDFow9ecl2K3A8M4w-158">
          <mxGeometry relative="1" as="geometry">
            <Array as="points">
              <mxPoint x="2016" y="1344" />
              <mxPoint x="1848" y="1344" />
            </Array>
          </mxGeometry>
        </mxCell>
        <mxCell id="yz8sDFow9ecl2K3A8M4w-145" value="&lt;span style=&quot;font-size: 12px;&quot;&gt;Assemble the Royal Expeditioneers&lt;/span&gt;&lt;br&gt;&lt;br&gt;wip" style="rounded=0;whiteSpace=wrap;html=1;fillColor=#f5f5f5;gradientColor=#b3b3b3;strokeColor=#666666;fontFamily=Georgia;fontSize=9;verticalAlign=middle;" vertex="1" parent="1">
          <mxGeometry x="1904" y="1176" width="224" height="112" as="geometry" />
        </mxCell>
        <mxCell id="yz8sDFow9ecl2K3A8M4w-151" style="edgeStyle=orthogonalEdgeStyle;rounded=0;orthogonalLoop=1;jettySize=auto;html=1;" edge="1" parent="1" source="yz8sDFow9ecl2K3A8M4w-148" target="yz8sDFow9ecl2K3A8M4w-143">
          <mxGeometry relative="1" as="geometry" />
        </mxCell>
        <mxCell id="yz8sDFow9ecl2K3A8M4w-148" value="OR" style="ellipse;whiteSpace=wrap;html=1;fillColor=#e51400;fontColor=#ffffff;strokeColor=#B20000;rounded=0;" vertex="1" parent="1">
          <mxGeometry x="2156" y="1330" width="56" height="28" as="geometry" />
        </mxCell>
        <mxCell id="yz8sDFow9ecl2K3A8M4w-154" style="edgeStyle=orthogonalEdgeStyle;rounded=0;orthogonalLoop=1;jettySize=auto;html=1;" edge="1" parent="1" source="yz8sDFow9ecl2K3A8M4w-152" target="yz8sDFow9ecl2K3A8M4w-153">
          <mxGeometry relative="1" as="geometry" />
        </mxCell>
        <mxCell id="yz8sDFow9ecl2K3A8M4w-152" value="&lt;span style=&quot;font-size: 12px;&quot;&gt;Attacks on the Coast&lt;/span&gt;&lt;br&gt;&lt;br&gt;wip" style="rounded=0;whiteSpace=wrap;html=1;fillColor=#f5f5f5;gradientColor=#b3b3b3;strokeColor=#666666;fontFamily=Georgia;fontSize=9;verticalAlign=middle;" vertex="1" parent="1">
          <mxGeometry x="1568" y="1176" width="224" height="112" as="geometry" />
        </mxCell>
        <mxCell id="yz8sDFow9ecl2K3A8M4w-157" style="edgeStyle=orthogonalEdgeStyle;rounded=0;orthogonalLoop=1;jettySize=auto;html=1;" edge="1" parent="1" source="yz8sDFow9ecl2K3A8M4w-153" target="yz8sDFow9ecl2K3A8M4w-155">
          <mxGeometry relative="1" as="geometry">
            <Array as="points">
              <mxPoint x="1680" y="1568" />
              <mxPoint x="2016" y="1568" />
            </Array>
          </mxGeometry>
        </mxCell>
        <mxCell id="yz8sDFow9ecl2K3A8M4w-159" style="edgeStyle=orthogonalEdgeStyle;rounded=0;orthogonalLoop=1;jettySize=auto;html=1;" edge="1" parent="1" source="yz8sDFow9ecl2K3A8M4w-153" target="yz8sDFow9ecl2K3A8M4w-158">
          <mxGeometry relative="1" as="geometry">
            <Array as="points">
              <mxPoint x="1680" y="1568" />
              <mxPoint x="1848" y="1568" />
            </Array>
          </mxGeometry>
        </mxCell>
        <mxCell id="yz8sDFow9ecl2K3A8M4w-153" value="&lt;span style=&quot;font-size: 12px;&quot;&gt;Undermine the Abyssus Theory&lt;/span&gt;&lt;br&gt;&lt;br&gt;wip" style="rounded=0;whiteSpace=wrap;html=1;fillColor=#f5f5f5;gradientColor=#b3b3b3;strokeColor=#666666;fontFamily=Georgia;fontSize=9;verticalAlign=middle;" vertex="1" parent="1">
          <mxGeometry x="1568" y="1400" width="224" height="112" as="geometry" />
        </mxCell>
        <mxCell id="yz8sDFow9ecl2K3A8M4w-155" value="&lt;span style=&quot;font-size: 12px;&quot;&gt;Source of the Great Sea Swells&lt;/span&gt;&lt;br&gt;&lt;br&gt;wip" style="rounded=0;whiteSpace=wrap;html=1;fillColor=#f5f5f5;gradientColor=#b3b3b3;strokeColor=#666666;fontFamily=Georgia;fontSize=9;verticalAlign=middle;" vertex="1" parent="1">
          <mxGeometry x="1904" y="1624" width="224" height="112" as="geometry" />
        </mxCell>
        <mxCell id="yz8sDFow9ecl2K3A8M4w-158" value="&lt;span style=&quot;font-size: 12px;&quot;&gt;The Late Strangers to the Sea&lt;/span&gt;&lt;br&gt;&lt;br&gt;wip" style="rounded=0;whiteSpace=wrap;html=1;fillColor=#f5f5f5;gradientColor=#b3b3b3;strokeColor=#666666;fontFamily=Georgia;fontSize=9;verticalAlign=middle;" vertex="1" parent="1">
          <mxGeometry x="1736" y="1848" width="224" height="112" as="geometry" />
        </mxCell>
        <mxCell id="yz8sDFow9ecl2K3A8M4w-162" style="edgeStyle=orthogonalEdgeStyle;rounded=0;orthogonalLoop=1;jettySize=auto;html=1;" edge="1" parent="1" source="yz8sDFow9ecl2K3A8M4w-161" target="yz8sDFow9ecl2K3A8M4w-103">
          <mxGeometry relative="1" as="geometry" />
        </mxCell>
        <mxCell id="yz8sDFow9ecl2K3A8M4w-161" value="&lt;span style=&quot;font-size: 12px;&quot;&gt;Police Rollout&lt;/span&gt;&lt;br&gt;&lt;br&gt;wip" style="rounded=0;whiteSpace=wrap;html=1;fillColor=#f5f5f5;gradientColor=#b3b3b3;strokeColor=#666666;fontFamily=Georgia;fontSize=9;verticalAlign=middle;" vertex="1" parent="1">
          <mxGeometry x="1904" y="56" width="224" height="112" as="geometry" />
        </mxCell>
        <mxCell id="yz8sDFow9ecl2K3A8M4w-164" value="Must be at war with EIR" style="rounded=0;whiteSpace=wrap;fillColor=#d5e8d4;strokeColor=#82b366;gradientColor=#97d077;fontSize=9;fontFamily=Georgia;" vertex="1" parent="1">
          <mxGeometry x="1722" y="490" width="98" height="28" as="geometry" />
        </mxCell>
        <mxCell id="yz8sDFow9ecl2K3A8M4w-165" value="3 or less Fenian states remain" style="rounded=0;whiteSpace=wrap;fillColor=#d5e8d4;strokeColor=#82b366;gradientColor=#97d077;fontSize=9;fontFamily=Georgia;" vertex="1" parent="1">
          <mxGeometry x="2226" y="265.5" width="98" height="28" as="geometry" />
        </mxCell>
        <mxCell id="yz8sDFow9ecl2K3A8M4w-166" value="&lt;span style=&quot;font-size: 12px;&quot;&gt;Conference of the Mystics&lt;/span&gt;&lt;br&gt;&lt;br&gt;wip" style="rounded=0;whiteSpace=wrap;html=1;fillColor=#fff2cc;gradientColor=#ffd966;strokeColor=#d6b656;fontFamily=Georgia;fontSize=9;verticalAlign=middle;" vertex="1" parent="1">
          <mxGeometry x="1512" y="952" width="224" height="112" as="geometry" />
        </mxCell>
        <mxCell id="yz8sDFow9ecl2K3A8M4w-168" value="XOR" style="shape=doubleArrow;whiteSpace=wrap;html=1;fillColor=#ffcccc;strokeColor=#36393d;arrowWidth=0.6171433221726185;arrowSize=0.2247616722470241;rounded=0;" vertex="1" parent="1">
          <mxGeometry x="2156" y="100" width="56" height="24" as="geometry" />
        </mxCell>
      </root>
    </mxGraphModel>
  </diagram>
</mxfile>
